<svg xmlns="http://www.w3.org/2000/svg" width="512" height="512"><path fill="#52a435" d="M0 0H512V512H0"/><path d="M102.4 110.9H204.8v93.9H102.4m204.8-93.9H409.625v93.9H307.2m-102.4 8.5v51.2H153.6V409.625h51.2v-51.2H307.2v51.2h51.2V264.5H307.2V213.3"/><path fill="#86d562" d="M102.4 204.8H409.63v8.5H102.4M307.2 409.63h51.2v8.5H307.2m-153.6-8.5h51.2v8.5H153.6m51.2-59.7H307.2v8.5H204.8"/><path fill="#2a631b" d="M204.8 204.8H307.2v8.5H204.8M307.2 256h51.2v8.5H307.2M153.6 256h51.2v8.5H153.6M307.2 102.4H409.63v8.5H307.2m-204.8-8.5H204.8v8.5H102.4"/></svg>